<?xml version="1.0" encoding="UTF-8" standalone="no"?>
<svg
   xmlns:dc="http://purl.org/dc/elements/1.1/"
   xmlns:cc="http://creativecommons.org/ns#"
   xmlns:rdf="http://www.w3.org/1999/02/22-rdf-syntax-ns#"
   xmlns:svg="http://www.w3.org/2000/svg"
   xmlns="http://www.w3.org/2000/svg"
   viewBox="0 0 1064 1066.6667"
   height="1066.6667"
   width="1064"
   xml:space="preserve"
   id="svg2"
   version="1.1"><metadata
     id="metadata8"><rdf:RDF><cc:Work
         rdf:about=""><dc:format>image/svg+xml</dc:format><dc:type
           rdf:resource="http://purl.org/dc/dcmitype/StillImage" /></cc:Work></rdf:RDF></metadata><defs
     id="defs6" /><g
     transform="matrix(1.3333333,0,0,-1.3333333,0,1066.6667)"
     id="g10"><g
       transform="scale(0.1)"
       id="g12"><path
         id="path14"
         style="fill:#20b49a;fill-opacity:1;fill-rule:nonzero;stroke:none"
         d="m 5006.17,2878.26 c -39.88,0 -83.75,11.95 -119.61,39.84 -275.27,199.38 -534.45,283.21 -789.8,255.32 -111.68,-11.99 -211.33,67.85 -223.28,175.51 -12,111.67 67.85,207.38 175.5,223.32 259.3,27.89 518.56,-23.95 777.82,-151.57 71.79,335.08 283.2,682.11 801.75,889.61 -231.36,402.85 -235.27,837.58 -11.95,1300.47 -594.41,155.59 -853.59,486.64 -949.45,821.72 -191.53,-107.73 -386.92,-167.58 -590.43,-179.57 -111.68,-7.93 -203.48,79.73 -211.37,191.52 -7.89,111.68 79.77,203.52 191.56,211.33 211.37,11.99 422.82,107.74 630.2,283.2 59.84,47.86 139.65,59.85 211.37,27.89 71.75,-31.95 115.66,-99.72 119.61,-179.57 7.93,-299.18 111.68,-714.02 937.38,-837.57 67.85,-7.93 123.71,-51.88 151.52,-115.63 27.93,-63.87 23.95,-135.66 -11.95,-191.56 -323.16,-502.66 -319.14,-921.41 3.98,-1316.41 43.87,-51.87 55.86,-123.67 35.9,-191.52 -20,-63.87 -75.7,-115.66 -139.65,-131.6 -562.46,-143.6 -817.77,-438.79 -797.77,-921.41 3.98,-75.7 -39.88,-147.5 -107.73,-183.51 -20,-11.96 -51.88,-20 -83.75,-20 z m -1930.62,0 c -31.96,0 -63.83,7.93 -95.75,23.95 -67.85,35.86 -107.69,107.69 -107.69,183.51 15.94,486.64 -235.27,777.81 -793.83,921.41 -67.89,15.94 -119.61,67.85 -139.65,131.56 -20,63.83 -7.93,135.66 35.9,187.46 319.1,394.92 323.13,813.79 7.93,1320.39 -35.9,55.86 -39.88,127.58 -11.99,191.53 27.93,59.84 87.81,103.78 151.56,115.66 821.72,119.61 929.34,538.55 937.38,837.58 3.99,75.74 47.82,143.59 119.61,175.51 67.86,31.99 151.53,20 211.33,-27.89 211.37,-179.58 418.91,-271.25 630.24,-283.21 111.68,-3.98 195.5,-99.72 191.52,-211.33 -3.99,-111.68 -99.73,-199.37 -211.37,-191.52 -199.33,11.95 -398.9,71.76 -590.39,179.57 -99.76,-335.08 -359.02,-666.21 -949.45,-825.78 219.41,-462.7 215.39,-901.52 -11.95,-1300.47 518.55,-207.38 730,-554.45 797.77,-889.61 263.28,131.6 522.58,183.52 785.78,151.56 111.72,-11.99 191.56,-111.68 175.55,-223.32 -12,-111.68 -111.72,-187.46 -223.32,-175.5 -255.28,27.89 -522.54,-59.85 -797.82,-255.28 -31.95,-23.94 -71.75,-35.9 -111.68,-35.9 z m 2465.11,-1587.5 c -59.84,0 -119.61,27.89 -155.58,75.7 l -694.1,877.62 c -67.89,87.81 -55.86,211.33 31.95,283.2 87.81,67.86 211.37,55.86 283.16,-31.99 l 339.18,-426.79 v 694.14 c 0,111.68 91.76,199.33 199.38,199.33 107.62,0 199.37,-91.72 199.37,-199.33 v -1272.5 c 0,-83.75 -55.86,-159.61 -135.66,-191.57 -20,-3.98 -43.87,-7.89 -67.85,-7.89 z m -2995.74,0 c -23.9,0 -43.83,3.99 -67.85,11.95 -79.73,27.93 -135.66,103.79 -135.66,191.57 v 1272.46 c 0,111.72 91.71,199.37 199.37,199.37 107.62,0 199.38,-91.72 199.38,-199.37 v -694.1 l 339.18,426.79 c 67.85,87.82 195.46,99.77 283.16,31.96 87.81,-67.86 99.77,-195.51 31.95,-283.17 l -694.1,-877.62 c -35.9,-51.87 -95.74,-79.72 -155.58,-79.72 z M 3984.96,10.1797 C 2888.01,18.1016 1942.58,413.031 1172.66,1182.83 394.801,1960.68 0,2909.98 0,4003.07 c 0,1096.95 394.879,2042.38 1172.66,2816.25 769.96,777.85 1715.35,1172.65 2812.3,1172.65 1092.89,0 2042.38,-394.88 2820.24,-1172.65 C 7583.01,6049.35 7977.85,5103.96 7977.85,4007.01 7977.85,2914.12 7582.93,1964.63 6805.2,1186.78 6027.34,408.961 5081.91,14.1211 3984.96,10.0195 Z m 0,7507.3003 C 3003.67,7517.48 2193.87,7178.3 1503.79,6484.39 805.699,5794.28 466.68,4980.57 466.68,3999.24 466.68,3021.93 805.859,2208.14 1499.8,1510.14 2189.88,820.02 2999.61,481 3980.98,477.012 c 977.3,7.929 1795.07,347.027 2489.1,1037.108 694.1,694.1 1033.08,1511.8 1033.08,2489.1 0,981.25 -339.18,1791.06 -1033.08,2481.17 -690.12,694.11 -1503.83,1033.09 -2485.16,1033.09 z" /></g></g></svg>