<?xml version="1.0" encoding="UTF-8" standalone="no"?>
<svg
   xmlns:dc="http://purl.org/dc/elements/1.1/"
   xmlns:cc="http://creativecommons.org/ns#"
   xmlns:rdf="http://www.w3.org/1999/02/22-rdf-syntax-ns#"
   xmlns:svg="http://www.w3.org/2000/svg"
   xmlns="http://www.w3.org/2000/svg"
   viewBox="0 0 865.33331 732"
   height="732"
   width="865.33331"
   xml:space="preserve"
   id="svg2"
   version="1.1"><metadata
     id="metadata8"><rdf:RDF><cc:Work
         rdf:about=""><dc:format>image/svg+xml</dc:format><dc:type
           rdf:resource="http://purl.org/dc/dcmitype/StillImage" /></cc:Work></rdf:RDF></metadata><defs
     id="defs6" /><g
     transform="matrix(1.3333333,0,0,-1.3333333,0,732)"
     id="g10"><g
       transform="scale(0.1)"
       id="g12"><path
         id="path14"
         style="fill:#20b49a;fill-opacity:1;fill-rule:nonzero;stroke:none"
         d="M 5672.97,5484.64 H 812.379 C 365.82,5482.8 3.75,5122.22 0,4675.69 V 1866.51 C -0.898438,1650.15 84.1797,1442.3 236.52,1288.66 388.871,1135.03 596.02,1048.19 812.379,1047.3 h 959.141 c 38.09,0.78 75.36,-11.25 105.82,-34.15 l 256.02,-218.431 c 70.78,-48.278 166.44,-36.528 223.48,27.422 57.03,63.937 57.81,160.308 1.79,225.159 l -256.01,218.47 c -94.96,81.25 -216.37,124.92 -341.33,122.85 H 812.379 c -125.82,0.9 -246.168,51.76 -334.488,141.41 -88.36,89.61 -137.461,210.62 -136.563,336.48 v 2809.18 c 3.711,258.01 213.012,465.79 471.051,467.62 H 5672.97 c 258.05,-1.83 467.34,-209.61 471.05,-467.62 V 1866.51 c 0.9,-125.86 -48.24,-246.87 -136.56,-336.48 -88.32,-89.65 -208.67,-140.51 -334.49,-141.41 h -959.14 c -124.96,2.07 -246.37,-41.6 -341.33,-122.85 L 3348.48,391.941 c -63.87,-54.613 -158.01,-54.613 -221.88,0 -71.6,61.25 -179.33,52.86 -240.62,-18.793 -61.25,-71.597 -52.86,-179.367 18.79,-240.617 190.46,-163.3591 471.68,-163.3591 662.18,0 l 1023.99,873.829 c 30.47,26.05 69.14,40.54 109.22,40.94 h 959.14 c 218.75,-2.74 429.41,82.46 584.72,236.48 155.32,154.02 242.27,363.98 241.33,582.73 v 2809.18 c -3.75,446.53 -365.82,807.11 -812.38,808.95 z" /><path
         id="path16"
         style="fill:#20b49a;fill-opacity:1;fill-rule:nonzero;stroke:none"
         d="m 2901.33,3242.06 c 0,-121.91 65.08,-234.61 170.66,-295.58 105.63,-60.98 235.74,-60.98 341.37,0 105.59,60.97 170.66,173.67 170.66,295.58 0,121.95 -65.07,234.65 -170.66,295.63 -105.63,60.97 -235.74,60.97 -341.37,0 -105.58,-60.98 -170.66,-173.68 -170.66,-295.63 z" /><path
         id="path18"
         style="fill:#20b49a;fill-opacity:1;fill-rule:nonzero;stroke:none"
         d="m 1194.69,3242.06 c -0.04,-121.95 65.04,-234.65 170.62,-295.62 105.63,-60.98 235.74,-60.98 341.37,0 105.62,60.97 170.66,173.67 170.66,295.62 0,121.99 -65.04,234.69 -170.66,295.67 -105.63,60.97 -235.74,60.97 -341.37,0 -105.58,-60.98 -170.66,-173.68 -170.62,-295.67 z" /><path
         id="path20"
         style="fill:#20b49a;fill-opacity:1;fill-rule:nonzero;stroke:none"
         d="m 4608.01,3242.06 c 0,-121.95 65.04,-234.65 170.66,-295.62 105.59,-60.98 235.74,-60.98 341.37,0 105.58,60.97 170.66,173.67 170.62,295.62 0.04,121.99 -65.04,234.69 -170.62,295.67 -105.63,60.97 -235.78,60.97 -341.37,0 -105.62,-60.98 -170.66,-173.68 -170.66,-295.67 z" /></g></g></svg>