<?xml version="1.0" encoding="UTF-8" standalone="no"?>
<svg
   xmlns:dc="http://purl.org/dc/elements/1.1/"
   xmlns:cc="http://creativecommons.org/ns#"
   xmlns:rdf="http://www.w3.org/1999/02/22-rdf-syntax-ns#"
   xmlns:svg="http://www.w3.org/2000/svg"
   xmlns="http://www.w3.org/2000/svg"
   viewBox="0 0 1049.3333 1040"
   height="1040"
   width="1049.3333"
   xml:space="preserve"
   id="svg2"
   version="1.1"><metadata
     id="metadata8"><rdf:RDF><cc:Work
         rdf:about=""><dc:format>image/svg+xml</dc:format><dc:type
           rdf:resource="http://purl.org/dc/dcmitype/StillImage" /></cc:Work></rdf:RDF></metadata><defs
     id="defs6" /><g
     transform="matrix(1.3333333,0,0,-1.3333333,0,1040)"
     id="g10"><g
       transform="scale(0.1)"
       id="g12"><path
         id="path14"
         style="fill:#20b49a;fill-opacity:1;fill-rule:nonzero;stroke:none"
         d="m 3934.96,3402.38 c 2206.49,0 3934.92,964.61 3934.92,2196.13 0,1231.49 -1728.43,2196.02 -3934.92,2196.02 C 1728.44,7794.53 0,6829.92 0,5598.44 0,4366.91 1728.44,3402.38 3934.96,3402.38 Z m 0,4064.45 c 1955.35,0 3607.27,-855.62 3607.27,-1868.39 0,-1012.82 -1651.92,-1868.36 -3607.27,-1868.36 -1955.35,0 -3607.261,855.66 -3607.261,1868.43 0,1012.78 1651.911,1868.32 3607.261,1868.32 z" /><path
         id="path16"
         style="fill:#20b49a;fill-opacity:1;fill-rule:nonzero;stroke:none"
         d="m 7415.82,4386.64 c 83.79,-157.7 126.41,-320.63 126.41,-484.22 0,-1012.77 -1651.92,-1868.44 -3607.27,-1868.44 -1955.35,0 -3607.261,855.59 -3607.261,1868.44 0,159.84 40.539,318.91 120.5,473.01 l -290.82,150.98 C 52.9297,4325.23 0,4115.27 0,3902.42 0,2671.01 1728.44,1706.33 3934.96,1706.33 c 2206.49,0 3934.92,964.61 3934.92,2196.09 0,217.85 -55.47,432.54 -164.8,638.09 z" /><path
         id="path18"
         style="fill:#20b49a;fill-opacity:1;fill-rule:nonzero;stroke:none"
         d="m 7415.82,2690.35 c 83.79,-157.69 126.41,-320.55 126.41,-484.14 0,-1012.89 -1651.92,-1868.519 -3607.27,-1868.519 -1955.35,0 -3607.261,855.629 -3607.261,1868.519 0,159.73 40.539,318.91 120.5,473.01 l -290.82,150.86 C 52.9297,2628.91 0,2418.94 0,2206.21 0,974.609 1728.44,10 3934.96,10 c 2206.49,0 3934.92,964.609 3934.92,2196.21 0,217.73 -55.47,432.42 -164.8,638.05 z" /></g></g></svg>