<?xml version="1.0" standalone="no"?><!DOCTYPE svg PUBLIC "-//W3C//DTD SVG 1.1//EN" "http://www.w3.org/Graphics/SVG/1.1/DTD/svg11.dtd"><svg t="1497942883488" class="icon" style="" viewBox="0 0 1024 1024" version="1.1" xmlns="http://www.w3.org/2000/svg" p-id="8046" xmlns:xlink="http://www.w3.org/1999/xlink" width="64" height="64"><defs><style type="text/css"></style></defs><path d="M765.034 1.396h-627.397c0 0-78.944 0.999-89.743 90.742v834.314c0 0-0.83 96.151 106.365 96.151h730.442c0 0 84.757-4.742 91.408-91.994v-674.759l-65.129 69.799-0.494 631.241-797.462-0.83v-890.197h583.877l68.134-64.465zM765.034 1.396z" p-id="8047" fill="#1296db"></path><path d="M844.187 45.604l98.473 76.663 20.567-27.424c0 0 15.583-20.566 0-45.498 0 0-14.338-23.684-38.643-37.393 0 0-33.031-18.075-54.843 3.738l-25.554 29.914zM844.187 45.604z" p-id="8048" fill="#1296db"></path><path d="M911.494 162.777l-167.647 222.498c0 0-14.957 27.423-41.135 39.886l-74.169 35.525c0 0-19.943 9.971-24.305-17.449l13.089-81.645c0 0-1.249-14.957 18.693-41.129l177.628-234.962 97.845 77.277zM911.494 162.777z" p-id="8049" fill="#1296db"></path><path d="M290.75 580.35h439.382c0 0 14.338-3.742 13.715 20.562l0.019 20.178c0 0-3.137 11.222-19.964 8.729l-428.79 0.362c0 0-14.954 0.882-16.207-13.451v-26.409c0.001 0.001 2.496-9.971 11.844-9.971v0zM290.75 580.35z" p-id="8050" fill="#1296db"></path><path d="M290.75 743.638h439.382c0 0 14.338-3.743 13.715 20.567l0.019 20.172c0 0-3.137 11.222-19.964 8.729l-428.79 0.362c0 0-14.954 0.882-16.207-13.451v-26.407c0.001 0.001 2.496-9.971 11.844-9.971v0zM290.75 743.638z" p-id="8051" fill="#1296db"></path></svg>