<?xml version="1.0" standalone="no"?><!DOCTYPE svg PUBLIC "-//W3C//DTD SVG 1.1//EN" "http://www.w3.org/Graphics/SVG/1.1/DTD/svg11.dtd"><svg t="1497942181481" class="icon" style="" viewBox="0 0 1024 1024" version="1.1" xmlns="http://www.w3.org/2000/svg" p-id="31850" xmlns:xlink="http://www.w3.org/1999/xlink" width="64" height="64"><defs><style type="text/css"></style></defs><path d="M830.21824 1000.63232 181.72928 1000.63232c-64.4608 0-116.89984-55.69536-116.89984-124.16l0-706.56c0-68.46464 52.43904-124.16 116.89984-124.16l476.78464 0c19.79392 0 35.84 16.04608 35.84 35.84s-16.04608 35.84-35.84 35.84L181.72928 117.43232c-24.9344 0-45.21984 23.54176-45.21984 52.48l0 706.56c0 28.93824 20.28544 52.48 45.21984 52.48l648.48896 0c24.9344 0 45.21984-23.54176 45.21984-52.48L875.43808 316.47744c0-19.79392 16.04608-35.84 35.84-35.84s35.84 16.04608 35.84 35.84l0 559.99488C947.11808 944.92672 894.67904 1000.63232 830.21824 1000.63232zM947.24096 83.41504c-1.91488-3.15392-19.54816-31.34464-50.64704-48.87552-3.40992-1.86368-21.54496-11.17184-43.97056-11.17184-19.95776 0-37.72416 7.2192-51.37408 20.86912l-31.03744 34.74432-330.21952 405.6064c-17.39776 28.45696-32.48128 169.85088-23.0912 177.95072 12.83072 11.06944 162.48832-43.89888 179.34336-68.00384l296.21248-364.8 51.83488-61.2352 0.84992-1.0752C956.2624 152.75008 969.15456 118.46656 947.24096 83.41504zM478.89408 588.97408c0 0 11.63264-48.14848 12.0832-49.24416l32.98304 29.2352C522.89536 569.61024 478.89408 588.97408 478.89408 588.97408zM563.95776 522.31168l-36.17792-32.06144L788.61312 166.5024l37.9392 29.96224L563.95776 522.31168zM891.5968 117.1456l-32.5632 38.36928-36.72064-28.99968 33.91488-39.30112c0.18432-0.02048 0.43008-0.03072 0.74752-0.03072 3.64544 0 8.3456 1.77152 9.1648 2.14016 12.06272 6.8096 21.61664 19.32288 24.41216 23.77728C891.79136 115.10784 891.9552 116.14208 891.5968 117.1456z" p-id="31851" fill="#d4237a"></path></svg>