<?xml version="1.0" standalone="no"?><!DOCTYPE svg PUBLIC "-//W3C//DTD SVG 1.1//EN" "http://www.w3.org/Graphics/SVG/1.1/DTD/svg11.dtd"><svg t="1513998910313" class="icon" style="" viewBox="0 0 1024 1024" version="1.1" xmlns="http://www.w3.org/2000/svg" p-id="3269" xmlns:xlink="http://www.w3.org/1999/xlink" width="200" height="200"><defs><style type="text/css"></style></defs><path d="M511.026 0C229.262 0 0 229.242 0 511.006c0 281.762 229.262 511.005 511.026 511.005s510.964-229.243 510.964-511.005C1021.99 229.242 792.791 0 511.026 0z m0 911.723c-220.968 0-400.738-179.756-400.738-400.716 0-220.966 179.77-400.724 400.738-400.724 220.965 0 400.698 179.757 400.698 400.724 0.001 220.963-179.733 400.716-400.698 400.716z" fill="#db4757" p-id="3270"></path><path d="M702.122 319.877c-20.793-20.792-54.477-20.792-75.269 0L510.996 435.735 395.137 319.877c-20.793-20.792-54.477-20.792-75.27 0-20.793 20.794-20.793 54.476 0 75.271l115.858 115.858-115.858 115.859c-20.793 20.791-20.793 54.476 0 75.271 10.395 10.395 24.015 15.591 37.635 15.591 13.621 0 27.239-5.196 37.636-15.591l115.858-115.86 115.858 115.86c10.396 10.395 24.015 15.591 37.637 15.591 13.618 0 27.237-5.196 37.635-15.591 20.793-20.795 20.793-54.479 0-75.271l-115.86-115.859 115.858-115.858c20.791-20.792 20.791-54.477-0.002-75.271z" fill="#db4757" p-id="3271"></path></svg>