<?xml version="1.0" standalone="no"?><!DOCTYPE svg PUBLIC "-//W3C//DTD SVG 1.1//EN" "http://www.w3.org/Graphics/SVG/1.1/DTD/svg11.dtd"><svg t="1497942932475" class="icon" style="" viewBox="0 0 1024 1024" version="1.1" xmlns="http://www.w3.org/2000/svg" p-id="9662" xmlns:xlink="http://www.w3.org/1999/xlink" width="64" height="64"><defs><style type="text/css"></style></defs><path d="M296.024575 356.530113c30.845519 0 55.825446 25.010627 55.825446 55.825446 0 30.872125-24.979928 55.855122-55.825446 55.855122-30.846542 0-55.855122-24.982998-55.855122-55.855122C240.169453 381.540739 265.179057 356.530113 296.024575 356.530113z" p-id="9663" fill="#1296db"></path><path d="M519.439948 356.530113c30.872125 0 55.853076 25.010627 55.853076 55.825446 0 30.872125-24.980951 55.855122-55.853076 55.855122-30.873148 0-55.828516-24.982998-55.828516-55.855122C463.612455 381.540739 488.5668 356.530113 519.439948 356.530113z" p-id="9664" fill="#1296db"></path><path d="M742.85532 356.530113c30.816866 0 55.852052 25.010627 55.852052 55.825446 0 30.872125-25.035186 55.855122-55.852052 55.855122-30.872125 0-55.828516-24.982998-55.828516-55.855122C687.026804 381.540739 711.983195 356.530113 742.85532 356.530113z" p-id="9665" fill="#1296db"></path><path d="M827.430554 77.235059 196.567399 77.235059c-72.571852 0-131.371026 58.742892-131.371026 131.153062l0 419.776575c0 72.433706 58.799174 131.179668 131.371026 131.179668l262.850523 0 0 183.653787 302.286698-183.653787 65.725934 0c72.54627 0 131.37205-58.745962 131.37205-131.179668L958.802604 208.387098C958.802604 135.977951 899.9758 77.235059 827.430554 77.235059zM903.00274 628.164696c0 41.507346-33.92567 75.325569-75.573209 75.325569l-65.725934 0-15.653515 0-13.33675 8.073886-217.442334 132.163065 0-84.382852 0-55.854099-55.854099 0L196.567399 703.490266c-41.644469 0-75.573209-33.819247-75.573209-75.325569L120.99419 208.387098c0-41.508369 33.927717-75.271334 75.573209-75.271334l630.863155 0c41.646516 0 75.573209 33.762965 75.573209 75.271334L903.003763 628.164696z" p-id="9666" fill="#1296db"></path></svg>