<?xml version="1.0" standalone="no"?><!DOCTYPE svg PUBLIC "-//W3C//DTD SVG 1.1//EN" "http://www.w3.org/Graphics/SVG/1.1/DTD/svg11.dtd"><svg t="1510981880031" class="icon" style="" viewBox="0 0 1024 1024" version="1.1" xmlns="http://www.w3.org/2000/svg" p-id="1834" xmlns:xlink="http://www.w3.org/1999/xlink" width="200" height="200"><defs><style type="text/css"></style></defs><path d="M269.6704 949.0432c-39.2192 0-71.0144-31.3088-71.0144-69.9392 0-1.4592 0.0256-2.9184 0.128-4.352l14.336-225.5616-148.3008-179.7888a69.1712 69.1712 0 0 1 10.368-98.3552 71.4752 71.4752 0 0 1 27.8272-13.6448l224.256-54.1696 124.544-195.5328c20.8384-32.7168 64.6656-42.5984 97.8944-22.0928 9.0624 5.6064 16.7424 13.1584 22.4256 22.0928l124.5696 195.5328 224.2304 54.1696c38.0928 9.1904 61.4144 47.0528 52.0704 84.5568a68.9664 68.9664 0 0 1-13.8496 27.4432l-148.2752 179.7888 13.8752 218.496c6.3232 38.2208-19.9936 74.2144-58.8032 80.4352a69.248 69.248 0 0 1-11.2896 0.9216h-0.3584a71.7824 71.7824 0 0 1-25.3184-4.5568L512 863.0272l-217.0112 81.4336a71.7824 71.7824 0 0 1-25.3184 4.5568v0.0256z" fill="#bfbfbf" p-id="1835"></path></svg>