<?xml version="1.0" standalone="no"?><!DOCTYPE svg PUBLIC "-//W3C//DTD SVG 1.1//EN" "http://www.w3.org/Graphics/SVG/1.1/DTD/svg11.dtd"><svg t="1498486826165" class="icon" style="" viewBox="0 0 1024 1024" version="1.1" xmlns="http://www.w3.org/2000/svg" p-id="2442" xmlns:xlink="http://www.w3.org/1999/xlink" width="64" height="64"><defs><style type="text/css"></style></defs><path d="M512 0a512 512 0 1 0 0 1024A512 512 0 0 0 512 0z m132.672 819.2c-30.08-19.008-20.48-122.88-20.48-122.88l20.48-17.92s5.184-47.04 14.08-64c19.968-38.208 40.96-102.4 40.96-102.4s20.48-14.912 20.48-40.96c0-26.048-20.48-40.96-20.48-40.96s7.68-72.512 7.68-122.88c0-105.856-66.368-163.84-185.792-163.84-119.36 0-206.528 49.28-206.528 163.84 0 50.368 16 122.88 16 122.88s-20.48 14.912-20.48 40.96c0 26.048 20.48 40.96 20.48 40.96s23.936 74.304 40.96 102.4c9.984 16.384 14.08 64 14.08 64l20.48 17.92s9.728 103.872-20.48 122.88c-27.264 17.152-143.616 39.808-172.096 56.384C215.424 876.864 40.96 731.072 40.96 512A470.976 470.976 0 0 1 512 41.024a471.04 471.04 0 0 1 301.376 832.896c-32.704-16.384-142.208-38.144-168.704-54.72z" fill="#d4c8b3" p-id="2443"></path></svg>