<?xml version="1.0" encoding="UTF-8" standalone="no"?>
<svg
   xmlns:dc="http://purl.org/dc/elements/1.1/"
   xmlns:cc="http://creativecommons.org/ns#"
   xmlns:rdf="http://www.w3.org/1999/02/22-rdf-syntax-ns#"
   xmlns:svg="http://www.w3.org/2000/svg"
   xmlns="http://www.w3.org/2000/svg"
   viewBox="0 0 1100 725.33331"
   height="725.33331"
   width="1100"
   xml:space="preserve"
   id="svg2"
   version="1.1"><metadata
     id="metadata8"><rdf:RDF><cc:Work
         rdf:about=""><dc:format>image/svg+xml</dc:format><dc:type
           rdf:resource="http://purl.org/dc/dcmitype/StillImage" /></cc:Work></rdf:RDF></metadata><defs
     id="defs6" /><g
     transform="matrix(1.3333333,0,0,-1.3333333,0,725.33333)"
     id="g10"><g
       transform="scale(0.1)"
       id="g12"><path
         id="path14"
         style="fill:#20b49a;fill-opacity:1;fill-rule:nonzero;stroke:none"
         d="M 6911.99,10.0117 H 1280 C 563.199,10.0117 0,573.219 0,1290.01 V 4157.2 c 0,716.8 563.199,1280 1280,1280 h 5683.2 c 716.8,0 1280,-563.2 1280,-1280 V 1290.01 C 8191.99,573.219 7628.79,10.0117 6911.99,10.0117 Z M 1280,5130.01 c -511.988,0 -972.809,-460.82 -972.809,-972.81 V 1290.01 c 0,-512.03 460.821,-972.811 972.809,-972.811 h 5683.2 c 512,0 972.82,460.781 972.82,972.811 V 4157.2 c 0,511.99 -460.82,972.81 -972.82,972.81 z" /><path
         id="path16"
         style="fill:#20b49a;fill-opacity:1;fill-rule:nonzero;stroke:none"
         d="m 2560,2416.42 c -921.6,153.59 -1740.781,409.57 -2406.41,819.18 -102.3791,51.21 -102.3791,153.59 -51.211,204.8 51.211,51.21 153.641,102.39 204.812,51.21 614.411,-358.39 1433.589,-665.62 2252.809,-768 102.38,0 153.59,-102.43 153.59,-153.6 0,-102.42 -102.38,-153.59 -153.59,-153.59 z m 3020.78,102.38 c -51.17,0 -153.59,51.21 -153.59,102.38 0,102.43 51.21,153.64 102.42,204.81 972.77,204.8 1843.2,614.41 2457.58,1126.41 51.21,51.21 153.59,51.21 204.8,0 51.21,-51.22 51.21,-153.6 0,-204.81 C 7577.62,3133.22 6656.02,2723.61 5580.78,2518.8 Z M 4249.61,2262.79 h 665.59 c 102.42,0 153.59,-51.18 153.59,-153.6 0,-102.38 -51.17,-153.59 -153.59,-153.59 h -665.59 v -563.2 c 0,-51.22 0,-102.39 -51.21,-153.6 0,0 -51.21,-51.21 -102.38,-51.21 -51.22,0 -102.43,0 -102.43,51.21 0,0 -51.21,51.21 -51.21,153.6 v 614.41 H 3276.8 c -102.39,0 -153.6,51.17 -153.6,153.59 0,102.39 51.21,153.6 102.39,153.6 h 665.62 v 307.18 H 3276.8 c -102.39,0 -153.6,51.22 -153.6,153.64 0,102.38 51.21,153.59 102.39,153.59 h 512.03 C 3686.41,3082 3583.98,3235.6 3481.6,3389.19 l -307.19,460.82 c -51.21,102.39 -51.21,153.6 51.18,204.81 51.21,0 51.21,51.17 102.42,51.17 51.21,0 51.21,-51.17 102.38,-102.38 L 4096.02,2877.2 h 102.38 c 102.38,204.8 204.8,358.4 307.19,563.2 102.42,204.81 204.8,358.4 307.22,563.21 51.17,51.21 51.17,102.38 102.39,102.38 51.21,0 51.21,0 102.42,-51.17 51.17,0 51.17,-51.21 51.17,-102.42 0,-51.22 0,-51.22 -51.17,-102.39 l -563.21,-921.6 h 460.79 c 102.42,0 153.59,-51.21 153.59,-153.59 0,-102.42 -51.17,-153.64 -153.59,-153.64 h -665.59 z" /></g></g></svg>