<?xml version="1.0" standalone="no"?><!DOCTYPE svg PUBLIC "-//W3C//DTD SVG 1.1//EN" "http://www.w3.org/Graphics/SVG/1.1/DTD/svg11.dtd"><svg t="1524370915289" class="icon" style="" viewBox="0 0 1024 1024" version="1.1" xmlns="http://www.w3.org/2000/svg" p-id="2846" xmlns:xlink="http://www.w3.org/1999/xlink" width="200" height="200"><defs><style type="text/css"></style></defs><path d="M256.071041 426.675866l85.331289 51.198773-85.331289 51.200818 0 51.198773 136.531085-102.399591L256.071041 375.478115 256.071041 426.675866zM520.600081 716.804293c-23.5673 0-42.665644 11.45042-42.665644 25.600409 0 14.132611 19.099367 25.600409 42.665644 25.600409 23.568322 0 42.665644-11.467797 42.665644-25.600409C563.265726 728.254714 544.168404 716.804293 520.600081 716.804293zM512.001533 0c-282.738091 0-511.942758 229.212844-511.942758 511.992845 0 282.776934 229.203645 512.007155 511.942758 512.007155 282.737069 0 511.939692-229.231243 511.939692-512.007155C1023.941225 229.212844 794.73758 0 512.001533 0zM512.001533 972.78385c-254.463669 0-460.742963-206.312003-460.742963-460.791005s206.279294-460.776694 460.742963-460.776694c254.460602 0 460.748073 206.297693 460.748073 460.776694S766.462136 972.78385 512.001533 972.78385zM750.996606 580.274231l0-51.198773-85.331289-51.200818 85.331289-51.198773 0-51.197751-136.532107 102.396525L750.996606 580.274231z" p-id="2847" fill="#8a8a8a"></path></svg>