<?xml version="1.0" standalone="no"?><!DOCTYPE svg PUBLIC "-//W3C//DTD SVG 1.1//EN" "http://www.w3.org/Graphics/SVG/1.1/DTD/svg11.dtd"><svg t="1524377014221" class="icon" style="" viewBox="0 0 1024 1024" version="1.1" xmlns="http://www.w3.org/2000/svg" p-id="1099" xmlns:xlink="http://www.w3.org/1999/xlink" width="200" height="200"><defs><style type="text/css"></style></defs><path d="M289.461248 459.790336c37.608448 0 68.10624-30.49984 68.10624-68.114432 0-37.617664-30.498816-68.114432-68.10624-68.114432-37.615616 0-68.114432 30.496768-68.114432 68.114432C221.346816 429.290496 251.845632 459.790336 289.461248 459.790336zM800.269312 510.857216c0 159.909888-129.600512 289.488896-289.460224 289.488896S221.346816 670.767104 221.346816 510.857216l-51.07712 0c0 188.11392 152.467456 340.591616 340.539392 340.591616 188.070912 0 340.539392-152.477696 340.539392-340.591616L800.269312 510.857216zM510.809088 0c-282.112 0-510.809088 228.721664-510.809088 510.857216 0 282.171392 228.697088 510.876672 510.809088 510.876672 282.109952 0 510.808064-228.70528 510.808064-510.876672C1021.617152 228.721664 792.91904 0 510.809088 0zM510.809088 970.648576c-253.899776 0-459.723776-205.855744-459.723776-459.790336 0-253.899776 205.824-459.738112 459.723776-459.738112 253.897728 0 459.731968 205.83936 459.731968 459.738112C970.541056 764.791808 764.706816 970.648576 510.809088 970.648576zM732.15488 459.790336c37.61664 0 68.114432-30.49984 68.114432-68.114432 0-37.617664-30.496768-68.114432-68.114432-68.114432-37.607424 0-68.104192 30.496768-68.104192 68.114432C664.050688 429.290496 694.547456 459.790336 732.15488 459.790336z" p-id="1100" fill="#20b49a"></path></svg>