<?xml version="1.0" standalone="no"?><!DOCTYPE svg PUBLIC "-//W3C//DTD SVG 1.1//EN" "http://www.w3.org/Graphics/SVG/1.1/DTD/svg11.dtd"><svg t="1497942510947" class="icon" style="" viewBox="0 0 1024 1024" version="1.1" xmlns="http://www.w3.org/2000/svg" p-id="38826" xmlns:xlink="http://www.w3.org/1999/xlink" width="128" height="128"><defs><style type="text/css"></style></defs><path d="M877.458 755.688c-55.968-43.563-217.274-115.933-217.274-115.933l-104.735 192.57-15.528-45.874 28.66-57.904-57.362-57.904-57.383 57.904 28.702 57.904-18.503 46.955-101.821-193.651s-161.286 72.39-217.254 115.933c-55.968 43.542-80.675 175.75-80.675 175.75h895.43s-16.402-124.486-82.257-175.75m-360.91-132.48c131.46-0.208 219.086-175.064 219.086-269.184 0-94.12-0.374-261.463-219.085-261.463-218.691 0-219.087 167.364-219.087 261.485 0 94.118 87.647 269.37 219.087 269.163m0 0z" fill="#1296db" p-id="38827"></path></svg>