<?xml version="1.0" standalone="no"?><!DOCTYPE svg PUBLIC "-//W3C//DTD SVG 1.1//EN" "http://www.w3.org/Graphics/SVG/1.1/DTD/svg11.dtd"><svg t="1512058076823" class="icon" style="" viewBox="0 0 1024 1024" version="1.1" xmlns="http://www.w3.org/2000/svg" p-id="2861" xmlns:xlink="http://www.w3.org/1999/xlink" width="200" height="200"><defs><style type="text/css"></style></defs><path d="M851.22048 501.899264C851.22048 314.928128 699.108352 162.816 512.140288 162.816 325.168128 162.816 173.056 314.928128 173.056 501.899264c0 44.889088 8.920064 88.845312 26.51648 130.640896 16.863232 40.051712 40.77568 75.97568 71.123968 106.84416-6.340608 12.23168-9.5488 25.152512-9.5488 38.475776 0 46.923776 38.172672 85.096448 85.096448 85.096448 27.788288 0 53.351424-13.467648 69.363712-36.284416 31.852544 9.484288 64.295936 14.287872 96.512 14.287872 34.21184 0 68.412416-5.327872 101.732352-15.844352 15.796224 23.468032 42.27584 37.839872 70.34368 37.839872 46.923776 0 85.09952-38.171648 85.09952-85.096448 0-15.152128-3.98848-29.836288-11.572224-42.796032C818.060288 671.680512 851.22048 589.095936 851.22048 501.899264zM598.867968 787.308544c0.026624 0.152576 0.055296 0.306176 0.086016 0.462848-27.976704 8.476672-57.12896 12.773376-86.744064 12.773376-27.631616 0-54.910976-3.755008-81.181696-11.165696 0.156672-0.698368 0.306176-1.419264 0.431104-2.163712 1.01376-5.518336 1.4848-10.253312 1.4848-14.898176 0-45.973504-37.4016-83.381248-83.381248-83.381248-5.521408 0-11.09504 0.561152-16.567296 1.661952l-0.124928 0.023552c-1.08544 0.242688-2.015232 0.556032-2.833408 0.831488-0.384 0.129024-0.768 0.262144-1.160192 0.371712-4.07552 1.03936-7.7568 2.026496-11.467776 3.581952-1.251328 0.526336-2.321408 1.129472-3.26144 1.661952-0.533504 0.30208-1.042432 0.587776-1.552384 0.838656l-1.00352 0.497664c-2.705408 1.344512-5.499904 2.735104-8.20736 4.56192-2.296832 1.531904-4.256768 3.2256-6.14912 4.868096-0.259072 0.227328-0.51712 0.449536-0.78848 0.681984-53.60128-55.785472-83.044352-128.909312-83.044352-206.595072 0-164.71552 134.004736-298.724352 298.71616-298.724352s298.71616 134.008832 298.71616 298.720256c0 76.197888-28.521472 148.353024-80.425984 203.83232l-0.238592-0.181248c-1.544192-1.178624-3.13856-2.398208-4.9152-3.500032-2.174976-1.383424-4.370432-2.50368-6.490112-3.590144l-0.93696-0.478208c-0.557056-0.270336-1.104896-0.55296-1.65376-0.83456-1.458176-0.745472-2.966528-1.516544-4.632576-2.17088-3.009536-1.207296-5.999616-2.019328-8.896512-2.798592l-0.149504-0.038912c-0.572416-0.156672-1.139712-0.3328-1.70496-0.504832-1.250304-0.388096-2.668544-0.827392-4.173824-1.10592-5.38112-1.057792-10.719232-1.591296-15.864832-1.591296-45.978624 0-83.385344 37.40672-83.385344 83.385344C597.366784 776.953856 597.85728 781.845504 598.867968 787.308544zM395.956224 788.511744c-0.024576 0.100352-0.123904 0.388096-0.200704 0.595968-0.151552 0.432128-0.34304 0.971776-0.515072 1.615872-0.884736 3.315712-1.712128 5.764096-2.688 7.931904-8.264704 18.272256-26.440704 30.08-46.308352 30.08-28.05248 0-50.876416-22.823936-50.876416-50.876416 0-11.515904 3.992576-22.519808 11.552768-31.823872 1.743872-2.152448 3.72736-4.228096 5.895168-6.167552 0.78848-0.704512 1.703936-1.46432 2.680832-2.224128 1.647616-1.267712 3.56352-2.520064 6.019072-3.93216 0.364544-0.203776 0.728064-0.407552 1.088512-0.61952 0.856064-0.484352 1.664-0.944128 2.37568-1.284096 2.280448-1.063936 4.708352-1.823744 6.779904-2.427904l0.156672-0.048128c0.479232-0.151552 0.951296-0.316416 1.427456-0.480256 0.723968-0.251904 1.355776-0.472064 1.90464-0.591872 3.879936-0.856064 7.4752-1.275904 10.995712-1.275904 28.048384 0 50.87232 22.823936 50.87232 50.876416C397.116416 781.391872 396.72832 784.971776 395.956224 788.511744zM636.099584 793.667584c-0.167936-0.612352-0.344064-1.227776-0.528384-1.840128-1.504256-5.323776-2.207744-9.755648-2.207744-13.947904 0-28.05248 22.81984-50.87232 50.87232-50.87232 3.51232 0 7.079936 0.388096 10.535936 1.139712 0.144384 0.031744 0.463872 0.144384 0.751616 0.243712 0.432128 0.155648 0.975872 0.344064 1.600512 0.516096l0.079872 0.023552c3.187712 0.835584 5.543936 1.619968 7.583744 2.515968 0.304128 0.136192 0.728064 0.384 1.175552 0.644096 0.512 0.295936 1.024 0.587776 1.540096 0.856064 2.100224 1.112064 4.31616 2.33984 6.34368 3.795968 0.488448 0.344064 1.015808 0.795648 1.624064 1.319936 0.316416 0.272384 0.631808 0.543744 0.996352 0.843776 1.995776 1.640448 3.688448 3.22048 5.168128 4.836352 8.676352 9.484288 13.456384 21.608448 13.456384 34.136064 0 28.040192-22.811648 50.855936-50.855936 50.855936-20.431872 0-38.81984-12.187648-46.824448-30.988288C636.90752 796.527616 636.516352 795.140096 636.099584 793.667584z" p-id="2862" fill="#20b49a"></path><path d="M458.672128 470.163456c0 9.43616 7.675904 17.112064 17.112064 17.112064 9.43616 0 17.112064-7.675904 17.112064-17.112064 0-65.456128-53.243904-118.708224-118.684672-118.708224-65.455104 0-118.703104 53.252096-118.703104 118.708224 0 9.43616 7.675904 17.112064 17.107968 17.112064 9.435136 0 17.115136-7.675904 17.115136-17.112064 0-46.583808 37.896192-84.484096 84.48-84.484096C420.784128 385.67936 458.672128 423.579648 458.672128 470.163456z" p-id="2863" fill="#20b49a"></path><path d="M548.492288 487.27552c9.440256 0 17.11616-7.675904 17.11616-17.112064 0-46.583808 37.888-84.484096 84.45952-84.484096 46.583808 0 84.484096 37.900288 84.484096 84.484096 0 9.43616 7.675904 17.112064 17.107968 17.112064 9.440256 0 17.11616-7.675904 17.11616-17.112064 0-65.456128-53.252096-118.708224-118.708224-118.708224-65.44384 0-118.683648 53.252096-118.683648 118.708224C531.38432 479.599616 539.060224 487.27552 548.492288 487.27552z" p-id="2864" fill="#20b49a"></path><path d="M656.93184 589.899776c-3.283968-4.07552-8.168448-6.416384-13.391872-6.416384-3.848192 0-7.62368 1.319936-10.647552 3.724288-0.543744 0.436224-55.503872 43.331584-128.804864 43.331584-70.979584 0-110.415872-41.136128-110.79168-41.536512-3.244032-3.516416-7.835648-5.531648-12.603392-5.531648-4.312064 0-8.43264 1.619968-11.568128 4.540416-6.916096 6.372352-7.384064 17.191936-1.084416 24.064 1.932288 2.152448 48.379904 52.687872 136.047616 52.687872 85.76 0 147.564544-48.715776 150.156288-50.792448C661.600256 608.075776 662.815744 597.292032 656.93184 589.899776z" p-id="2865" fill="#20b49a"></path></svg>