<?xml version="1.0" standalone="no"?><!DOCTYPE svg PUBLIC "-//W3C//DTD SVG 1.1//EN" "http://www.w3.org/Graphics/SVG/1.1/DTD/svg11.dtd"><svg t="1493558466044" class="icon" style="" viewBox="0 0 1024 1024" version="1.1" xmlns="http://www.w3.org/2000/svg" p-id="3062" xmlns:xlink="http://www.w3.org/1999/xlink" width="200" height="200"><defs><style type="text/css"></style></defs><path d="M772.665015 462.117273c0-14.515808 1.814476-45.361899-0.604825-59.272882C642.62757 282.484152 605.1284 320.588147 599.080147 344.78116l0.604825 326.605676c95.562401-0.604825 172.980043-93.747925 172.980043-209.269563z" fill="#FBC7C2" p-id="3063"></path><path d="M22.076787 502.64057C19.05266 228.049873 236.184952 3.054852 507.146697 0.030725c270.35692-3.024127 492.327814 217.737117 494.747116 492.93264 3.024127 274.590697-214.108165 500.190544-485.069911 502.609845-270.35692 2.419301-491.722989-217.737117-494.747115-492.93264" fill="#495C6D" p-id="3064"></path><path d="M441.825562 478.447557a42.337773 21.773712 90 1 0 43.547424 0 42.337773 21.773712 90 1 0-43.547424 0Z" fill="#FCE6E4" p-id="3065"></path><path d="M920.242394 903.63976l-33.870218-145.158078s-76.812816-49.595677-160.883536-50.805327H619.644208l-1.814476 310.275392s157.85941 22.983362 302.412662-114.311987z" fill="#61C6CF" p-id="3066"></path><path d="M276.103423 933.881027l81.046594-174.794519s76.812816-49.595677 160.278711-51.410153h105.844432l-4.838603 315.113994c0.604825 0-289.711331 17.539934-342.331134-88.909322z" fill="#61C6CF" p-id="3067"></path><path d="M693.432897 704.652229c-3.628952 0-6.653079-1.209651-9.07238-3.628952-2.419301-2.419301-3.628952-5.443428-3.628952-9.07238V600.017447H539.202439v94.352751c0 7.257904-5.443428 12.701332-12.701331 12.701332l-18.749585 0.604825s1.814476 69.554912 101.005829 75.603166 104.634781-78.627292 104.634781-78.627292H693.432897z" fill="#FCE6E4" p-id="3068"></path><path d="M548.879645 653.846901l129.432619 111.892685c21.168886-16.330284 29.031616-30.846092 34.475044-61.692183-1.814476-0.604825-31.450917 7.862729-32.660568-10.886856l0.604825-87.094846-94.957576-1.209651-36.894344 48.990851z" fill="#532617" p-id="3069"></path><path d="M458.155846 419.779501c-2.419301 13.910982-3.024127 27.821965-3.024127 42.942598 0 115.521637 71.369388 209.269562 159.069061 208.664737h0.604825l-0.604825-300.598187c-69.554912-79.232118-85.280371-103.425131-156.044934 48.990852z" fill="#FCE6E4" p-id="3070"></path><path d="M772.665015 462.117273c0-14.515808 1.814476-45.361899-0.604825-59.272882C653.514426 282.484152 619.644208 320.588147 614.20078 344.78116l0.604825 326.605676c87.094847-0.604825 157.85941-93.747925 157.85941-209.269563z" fill="#FBC7C2" p-id="3071"></path><path d="M752.100954 477.842732a42.337773 21.773712 90 1 0 43.547423 0 42.337773 21.773712 90 1 0-43.547423 0Z" fill="#FBC7C2" p-id="3072"></path><path d="M605.1284 222.001619c-172.980043 0-177.21382 117.336113-177.21382 180.237947s32.660568 92.538275 32.660567 92.538275-8.467555-65.321135 29.636441-103.425131c35.079869-35.079869 55.64393 30.241266 120.36024 41.732948V222.001619h-5.443428z" fill="#D3A781" p-id="3073"></path><path d="M803.511106 381.07068c0-18.749585-27.21714-156.044934-195.35858-159.069061l0.604826 210.479213c6.048253 1.209651 14.515808 1.814476 21.168886 1.814476 80.441768 0 140.924301-22.378537 140.924301-22.378537v82.256244c12.701332-12.096506 32.660568-94.352751 32.660567-113.102335z" fill="#BA997D" p-id="3074"></path><path d="M614.20078 488.124762L584.564339 561.308627l29.636441 4.233777" fill="#FBC7C2" p-id="3075"></path><path d="M611.176653 615.13808c-28.42679 0-50.200502-11.491681-50.805327-11.491681-1.209651-0.604825-1.814476-2.419301-1.209651-4.233777 0.604825-1.209651 2.419301-1.814476 4.233777-1.209651 0.604825 0 52.619803 27.821965 101.00583-6.048253 1.209651-1.209651 3.024127-0.604825 4.233777 0.604825 1.209651 1.209651 0.604825 3.024127-0.604825 4.233778-19.35441 13.910982-39.313646 18.14476-56.853581 18.144759zM510.775649 459.697972c-1.814476 0-3.024127-1.209651-3.024126-3.024127s1.209651-3.024127 3.024126-3.024126l50.805327-4.233778c1.814476 0 3.024127 1.209651 3.024127 3.024127s-1.209651 3.024127-3.024127 3.024127l-50.805327 4.233777zM713.996958 462.117273c-0.604825 0-0.604825 0 0 0L663.191631 453.649719c-1.814476 0-3.024127-1.814476-2.419301-3.628952 0-1.814476 1.814476-3.024127 3.628952-2.419302l50.200502 8.467555c1.814476 0 3.024127 1.814476 2.419301 3.628952-0.604825 1.209651-1.814476 2.419301-3.024127 2.419301z" fill="#5E5E5E" p-id="3076"></path><path d="M544.041042 491.753714m-12.096506 0a12.096506 12.096506 0 1 0 24.193013 0 12.096506 12.096506 0 1 0-24.193013 0Z" fill="#5E5E5E" p-id="3077"></path><path d="M688.594295 491.753714m-12.096507 0a12.096506 12.096506 0 1 0 24.193013 0 12.096506 12.096506 0 1 0-24.193013 0Z" fill="#5E5E5E" p-id="3078"></path><path d="M556.137549 492.963365m-5.443428 0a5.443428 5.443428 0 1 0 10.886855 0 5.443428 5.443428 0 1 0-10.886855 0Z" fill="#FCE6E4" p-id="3079"></path><path d="M677.102614 495.382666m-5.443428 0a5.443428 5.443428 0 1 0 10.886855 0 5.443428 5.443428 0 1 0-10.886855 0Z" fill="#FCE6E4" p-id="3080"></path><path d="M329.932877 568.56653c0.604825 3.628952-2.419301 7.257904-6.048253 7.86273l-23.588188 2.419301c-3.628952 0.604825-7.257904-2.419301-7.862729-6.048253-0.604825-3.628952 2.419301-7.257904 6.048253-7.86273l23.588188-3.024126c4.233777 0 7.257904 2.419301 7.862729 6.653078z" fill="#324E5D" p-id="3081"></path><path d="M378.318903 354.458365c-6.048253-50.200502-51.410153-86.490021-101.610654-80.441768h-1.209651l34.475043 293.340283 18.14476-2.419302c14.515808-1.814476 24.797838-15.725458 22.983362-31.450916-5.443428-44.152249-14.515808-73.78869 6.653079-108.263734v-0.604825c15.120633-18.749585 23.588188-43.547423 20.564061-70.159738z" fill="#FFFFFF" p-id="3082"></path><path d="M196.26648 375.627252c3.024127 25.402664 15.725458 46.57155 34.475044 61.087358 29.636441 27.821965 27.821965 54.434279 33.870218 106.449257 1.814476 15.725458 15.120633 27.21714 29.636441 25.402663l16.330284-2.419301-33.870218-293.340282c-49.595677 7.862729-86.490021 53.224629-80.441769 102.820305z" fill="#E8E8E8" p-id="3083"></path><path d="M316.62672 503.245395l-17.539934 1.814476c-1.814476 0-3.628952-1.209651-3.628952-2.419301l-26.612315-104.634781c-0.604825-1.209651 0-3.024127 1.209651-3.628952 1.209651-0.604825 2.419301-1.209651 3.628952-0.604825l18.749585 8.467554 25.402664-12.701332c1.209651-0.604825 2.419301-0.604825 3.628952 0 1.209651 0.604825 1.814476 1.814476 1.814476 3.024127l-3.024127 107.054082c-0.604825 1.814476-1.814476 3.628952-3.628952 3.628952z m-15.120633-5.443428l10.886856-1.20965 3.024126-97.981703-21.168886 10.886856c-1.209651 0.604825-1.814476 0.604825-3.024127 0l-13.910982-6.048253 24.193013 94.35275z" fill="#B8B8B8" p-id="3084"></path><path d="M345.658336 494.777841l-85.885197 10.28203c1.814476 12.096506 2.419301 25.402664 4.233778 41.732948 1.814476 14.515808 14.515808 25.402664 29.031615 23.588187l34.475044-4.233777c14.515808-1.814476 24.797838-15.120633 22.983362-29.636441-1.209651-15.725458-3.628952-29.636441-4.838602-41.732947z" fill="#DEDEDE" p-id="3085"></path><path d="M349.892113 528.648059c-0.604825-3.628952-1.209651-7.257904-1.209651-10.282031l-85.885196 10.282031c0 3.024127 0.604825 6.653079 1.209651 10.282031l85.885196-10.282031z" fill="#C7C7C7" p-id="3086"></path><path d="M265.821393 552.236247c4.233777 11.491681 15.120633 18.749585 27.821965 17.539934l34.475043-4.233777c12.096506-1.209651 21.773712-11.491681 22.983362-23.588188l-85.28037 10.282031z" fill="#DEDEDE" p-id="3087"></path><path d="M261.587615 518.366028L347.472812 508.083998c-0.604825-3.628952-1.209651-7.862729-1.209651-11.491681l-85.885196 10.28203c0.604825 3.628952 0.604825 7.257904 1.20965 11.491681zM349.892113 548.002469c1.209651-3.024127 1.814476-7.257904 1.20965-10.886855l-86.490021 10.28203c-0.604825 4.233777 2.419301 7.862729 3.628952 10.282031l81.651419-9.677206z" fill="#C7C7C7" p-id="3088"></path><path d="M259.773139 504.455046l88.304498 46.57155s5.443428-10.886856 1.814476-21.168886l-4.233777-33.870219-85.885197 8.467555z" fill="" p-id="3089"></path><path d="M223.48362 377.441728c-1.209651 0-3.024127-0.604825-3.024127-1.814476 0-0.604825-13.306157-50.200502 32.055743-71.369389 1.209651-0.604825 3.024127 0 3.628951 1.209651 0.604825 1.209651 0 3.024127-1.20965 3.628952-40.523297 19.35441-29.031616 64.111484-29.031616 64.71631 0.604825 1.209651-0.604825 3.024127-2.419301 3.628952 0.604825 0 0 0 0 0z" fill="#FFFFFF" p-id="3090"></path><path d="M662.586806 492.963365c-0.604825 0-1.814476-0.604825-2.419302-1.209651-1.209651-1.209651-1.209651-3.024127 0-4.233777 0 0 25.402664-23.588188 62.901834-3.628952 1.209651 0.604825 1.814476 2.419301 1.209651 4.233777-0.604825 1.209651-2.419301 1.814476-4.233777 1.209651-33.870218-17.539934-56.248755 2.419301-56.248756 3.024127 0 0.604825-0.604825 0.604825-1.20965 0.604825zM512.590125 493.56819c-0.604825 0-1.814476-0.604825-2.419301-1.20965-1.209651-1.209651-1.209651-3.024127 0-4.233778 0 0 25.402664-23.588188 62.901834-3.628952 1.209651 0.604825 1.814476 2.419301 1.20965 4.233778 0 1.209651-1.814476 1.814476-3.024126 1.20965-33.870218-17.539934-56.248755 2.419301-56.248756 3.024127-0.604825 0-1.209651 0.604825-2.419301 0.604825z" fill="#5E5E5E" p-id="3091"></path><path d="M373.4803 975.009149l23.588188-87.699672 7.862729 96.167226zM767.221587 922.994171l21.773712-69.554913 10.28203 48.386026z" fill="#3C9AA2" p-id="3092"></path></svg>