<?xml version="1.0" standalone="no"?><!DOCTYPE svg PUBLIC "-//W3C//DTD SVG 1.1//EN" "http://www.w3.org/Graphics/SVG/1.1/DTD/svg11.dtd"><svg t="1497940145838" class="icon" style="" viewBox="0 0 1024 1024" version="1.1" xmlns="http://www.w3.org/2000/svg" p-id="15820" xmlns:xlink="http://www.w3.org/1999/xlink" width="200" height="200"><defs><style type="text/css"></style></defs><path d="M68.153728 878.3252l366.111329 0 0 80.631412-366.111329 0 0-80.631412Z" p-id="15821"></path><path d="M952.974875 958.955588l-18.197454-86.7252C904.388297 728.809931 724.1237 673.9116 664.873248 646.434805c-59.270918-27.462468-50.565652-109.814058-50.565652-109.814058 32.390711-50.553373 54.43375-93.315292 69.414953-128.260176 18.693758-31.738865 29.870308-68.313875 31.312146-107.453291 0.471744-5.544273 0.405229-8.391111 0.405229-8.391111 0-126.371152-102.437044-228.830709-228.830709-228.830709s-228.831732 102.459556-228.831732 228.830709c0 12.472056 1.258667 24.609491 3.193739 36.532031l-0.26913 0.031722c0.26913 1.38351 0.629333 2.788509 0.901533 4.194532 0.718361 4.061502 1.596358 8.055466 2.517333 12.045337 0.227174 0.911766 0.496304 1.812275 0.720408 2.735297 1.662873 6.658653 3.598968 13.193487 5.826705 19.602454 26.181289 79.07701 84.283592 153.700591 84.283592 153.700591l70.181409 0c51.869345 3.047406 61.47512 70.15992 61.47512 70.15992l0 367.437533L952.974875 958.955588z" p-id="15822"></path><path d="M68.153728 734.927255l366.111329 0 0 80.630389-366.111329 0 0-80.630389Z" p-id="15823"></path><path d="M68.153728 591.518055l366.111329 0 0 80.627319-366.111329 0 0-80.627319Z" p-id="15824"></path></svg>