<?xml version="1.0" standalone="no"?><!DOCTYPE svg PUBLIC "-//W3C//DTD SVG 1.1//EN" "http://www.w3.org/Graphics/SVG/1.1/DTD/svg11.dtd"><svg t="1497942150299" class="icon" style="" viewBox="0 0 1025 1024" version="1.1" xmlns="http://www.w3.org/2000/svg" p-id="30873" xmlns:xlink="http://www.w3.org/1999/xlink" width="128.125" height="128"><defs><style type="text/css"></style></defs><path d="M898.196 110.331h-771.82c-35.52 0-64.318 28.767-64.318 64.318v514.515c0 35.522 28.798 64.319 64.318 64.319h321.592v96.478h-160.797c-17.743 0-32.16 14.415-32.16 32.159v32.155h514.548v-32.155c0-17.744-14.415-32.159-32.16-32.159h-160.796v-96.478h321.592c35.52 0 64.319-28.797 64.319-64.319v-514.515c0-35.551-28.799-64.318-64.319-64.318zM480.127 689.165c0-17.744 14.414-32.158 32.159-32.158 17.743 0 32.158 14.414 32.158 32.158 0 17.777-14.415 32.192-32.158 32.192-17.743-0.001-32.159-14.415-32.159-32.192zM126.375 624.846v-450.197h771.82v450.197h-771.82z" p-id="30874" fill="#d4237a"></path></svg>