<?xml version="1.0" standalone="no"?><!DOCTYPE svg PUBLIC "-//W3C//DTD SVG 1.1//EN" "http://www.w3.org/Graphics/SVG/1.1/DTD/svg11.dtd"><svg t="1497942706526" class="icon" style="" viewBox="0 0 1024 1024" version="1.1" xmlns="http://www.w3.org/2000/svg" p-id="6418" xmlns:xlink="http://www.w3.org/1999/xlink" width="64" height="64"><defs><style type="text/css"></style></defs><path d="M657.6 664.2H368V681c0 6.2 3.7 9.3 11.2 9.3h267.2c8.7 1.2 12.4-2.5 11.2-11.2v-14.9zM657.6 561.4c0-8.7-3.7-13.7-11.2-14.9H379.2c-7.5 0-11.2 3.7-11.2 11.2v16.8h289.6v-13.1zM368 606.2h289.6v28H368z" p-id="6419" fill="#1296db"></path><path d="M831.7 64.3H192.3c-70.4 0-128 57.6-128 128v639.3c0 70.4 57.6 128 128 128h639.3c70.4 0 128-57.6 128-128V192.3c0.1-70.4-57.5-128-127.9-128zM280.2 380.2c0-10 5-14.9 14.9-14.9h93.4v-65.4c0-10 5.6-14.9 16.8-14.9 10 1.3 14.9 6.9 14.9 16.8v13.1H495c8.7 0 13.7 4.4 14.9 13.1-1.3 10-6.2 14.9-14.9 14.9h-74.7v22.4h84.1c10 0 15.6 5 16.8 14.9-1.3 11.2-6.9 16.8-16.8 16.8h-82.2v87.8c0 11.2-5 17.5-14.9 18.7-11.2-1.2-16.8-7.5-16.8-18.7V397h-95.3c-10.1 0-15-5.6-15-16.8zM489.4 468c-8.7 5-15.6 2.5-20.6-7.5-2.5-3.7-5-8.1-7.5-13.1s-6.2-10.6-11.2-16.8c-5-8.7-3.1-16.2 5.6-22.4 7.5-3.7 14.9-1.9 22.4 5.6 2.5 3.7 5.6 8.7 9.3 14.9 3.7 7.5 6.8 12.5 9.3 14.9 3.9 10.1 1.4 18.2-7.3 24.4z m-190.5 31.7c-8.7-6.2-9.3-14.9-1.9-26.2 1.2-1.2 2.5-3.1 3.7-5.6 13.7-22.4 21.2-38.6 22.4-48.6 3.7-11.2 11.2-14.9 22.4-11.2 10 5 13.1 13.1 9.3 24.3-11.2 26.2-21.2 45.5-29.9 57.9-8.6 10.1-17.3 13.2-26 9.4z m355 222.4H362.4c-18.7 1.2-28-11.2-28-37.4V544.6c-1.3-21.2 9.3-31.1 31.8-29.9h293.3c19.9 1.3 30.5 12.5 31.8 33.6V694c2.4 21.2-10.1 30.6-37.4 28.1z m87.8-224.2c-3.7 10-13.1 12.5-28 7.5-36.1-13.7-70.4-31.8-102.8-54.2-23.7 16.2-53.6 31.1-89.7 44.8-12.5 5-21.8 2.5-28-7.5-3.7-10 0-17.4 11.2-22.4 22.4-7.5 47.9-19.9 76.6-37.4-10-8.7-22.4-22.4-37.4-41.1-3.7-3.7-6.2-6.8-7.5-9.3-7.5-8.7-7.5-16.2 0-22.4 8.7-6.2 16.8-5.6 24.3 1.9 13.7 17.5 29.9 34.9 48.6 52.3 21.2-17.4 38.6-36.7 52.3-57.9 2.5-5 3.1-8.1 1.9-9.3-1.3-2.5-5-3.7-11.2-3.7H547.4c-11.2 0-17.5-5.6-18.7-16.8 2.5-10 9.3-14.9 20.6-14.9h125.2c29.9 1.3 39.8 14.3 29.9 39.2-12.5 26.2-34.3 53.6-65.4 82.2 33.6 21.2 63.5 36.1 89.7 44.8 12.3 4.9 16.7 13 13 24.2z" p-id="6420" fill="#1296db"></path></svg>