<?xml version="1.0" standalone="no"?><!DOCTYPE svg PUBLIC "-//W3C//DTD SVG 1.1//EN" "http://www.w3.org/Graphics/SVG/1.1/DTD/svg11.dtd"><svg t="1517107934362" class="icon" style="" viewBox="0 0 1024 1024" version="1.1" xmlns="http://www.w3.org/2000/svg" p-id="6607" xmlns:xlink="http://www.w3.org/1999/xlink" width="200" height="200"><defs><style type="text/css"></style></defs><path d="M480 64C214.848 64 0 278.848 0 544S214.848 1024 480 1024 960 809.152 960 544 745.152 64 480 64zM288 768C270.336 768 256 753.664 256 736S270.336 704 288 704 320 718.336 320 736 305.664 768 288 768zM288 576C270.336 576 256 561.664 256 544S270.336 512 288 512 320 526.336 320 544 305.664 576 288 576zM288 384C270.336 384 256 369.664 256 352S270.336 320 288 320 320 334.336 320 352 305.664 384 288 384zM672 768l-256 0C398.336 768 384 753.664 384 736S398.336 704 416 704l256 0c17.664 0 32 14.336 32 32S689.664 768 672 768zM672 576l-256 0C398.336 576 384 561.664 384 544S398.336 512 416 512l256 0C689.664 512 704 526.336 704 544S689.664 576 672 576zM672 384l-256 0C398.336 384 384 369.664 384 352S398.336 320 416 320l256 0C689.664 320 704 334.336 704 352S689.664 384 672 384z" p-id="6608" fill="#20b49a"></path></svg>