<?xml version="1.0" standalone="no"?><!DOCTYPE svg PUBLIC "-//W3C//DTD SVG 1.1//EN" "http://www.w3.org/Graphics/SVG/1.1/DTD/svg11.dtd"><svg t="1497942861273" class="icon" style="" viewBox="0 0 1024 1024" version="1.1" xmlns="http://www.w3.org/2000/svg" p-id="7261" xmlns:xlink="http://www.w3.org/1999/xlink" width="128" height="128"><defs><style type="text/css"></style></defs><path d="M942.250667 750.7456 846.660267 697.2416 751.086933 750.7456 804.608 655.189333 751.086933 559.650133 846.660267 613.154133 942.250667 559.650133 888.7296 655.189333 942.250667 750.7456ZM834.7136 236.680533 727.176533 296.874667 787.4048 189.3888 727.176533 81.902933 834.7136 142.097067 942.250667 81.902933 882.039467 189.3888 942.250667 296.874667 834.7136 236.680533ZM738.525867 440.200533 249.2416 929.297067C232.516267 946.0224 207.428267 946.0224 190.702933 929.297067L94.5152 833.160533C77.789867 816.4352 77.789867 791.3472 94.5152 774.638933L583.799467 285.5424C600.5248 268.817067 625.629867 268.817067 642.3552 285.5424L738.525867 381.678933C755.2512 398.404267 755.2512 423.492267 738.525867 440.200533ZM608.904533 327.338667 508.5184 427.6736 596.343467 515.447467 696.712533 415.1296 608.904533 327.338667ZM320.938667 219.4944 225.348267 272.9984 278.8864 177.442133 225.348267 81.902933 320.938667 135.406933 416.529067 81.902933 362.990933 177.442133 416.529067 272.9984 320.938667 219.4944Z" p-id="7262" fill="#1296db"></path></svg>