<?xml version="1.0" standalone="no"?><!DOCTYPE svg PUBLIC "-//W3C//DTD SVG 1.1//EN" "http://www.w3.org/Graphics/SVG/1.1/DTD/svg11.dtd"><svg t="1511327815994" class="icon" style="" viewBox="0 0 1195 1024" version="1.1" xmlns="http://www.w3.org/2000/svg" p-id="2168" xmlns:xlink="http://www.w3.org/1999/xlink" width="233.3984375" height="200"><defs><style type="text/css"></style></defs><path d="M151.578368 0C67.996245 0 0 67.996224 0 151.545483L0 628.997632C0 712.548318 67.996245 780.544546 151.578368 780.544546L477.550933 780.544546 731.357696 1006.135134C737.914709 1011.980757 746.076245 1014.832009 754.204843 1014.832009 763.678976 1014.832009 773.120171 1010.937301 779.904768 1003.276723 792.536405 989.100646 791.256747 967.335561 777.046357 954.729668L513.466283 720.442206C507.182677 714.832751 499.05408 711.73818 490.617685 711.73818L151.578368 711.73818C105.928363 711.73818 68.804949 674.616149 68.804949 628.997632L68.804949 151.545483C68.804949 105.926966 105.928363 68.804936 151.578368 68.804936L1043.121152 68.804936C1088.745387 68.804936 1125.868885 105.926966 1125.868885 151.545483L1125.868885 628.997632C1125.868885 674.616149 1088.745387 711.73818 1043.121152 711.73818L842.055339 711.73818C823.042731 711.73818 807.652864 727.129472 807.652864 746.140646 807.652864 765.151821 823.037013 780.543113 842.055339 780.543113L1043.121152 780.543113C1126.670421 780.543113 1194.666667 712.546884 1194.666667 628.996198L1194.666667 151.545483C1194.665216 67.996224 1126.668971 0 1043.119787 0L151.578368 0ZM284.613717 409.692098C284.613717 444.223386 312.603733 472.246332 347.136427 472.246332 381.702059 472.246332 409.690624 444.223386 409.690624 409.692098 409.690624 375.119299 381.700608 347.136431 347.136427 347.136431 312.603733 347.136429 284.613717 375.119299 284.613717 409.692098L284.613717 409.692098 284.613717 409.692098ZM534.793387 409.692098C534.793387 444.223386 562.783403 472.246332 597.347669 472.246332 631.887531 472.246332 659.870379 444.223386 659.870379 409.692098 659.870379 375.119299 631.887531 347.136431 597.347669 347.136431 562.783403 347.136429 534.793387 375.119299 534.793387 409.692098L534.793387 409.692098 534.793387 409.692098ZM910.084437 409.692098C910.084437 375.119299 882.068651 347.136431 847.53024 347.136431 812.997547 347.136431 784.980309 375.119299 784.980309 409.692098 784.980309 444.223386 812.996096 472.246332 847.53024 472.246332 882.068651 472.246332 910.084437 444.223386 910.084437 409.692098L910.084437 409.692098 910.084437 409.692098Z" p-id="2169" fill="#337ab7"></path></svg>