<?xml version="1.0" standalone="no"?><!DOCTYPE svg PUBLIC "-//W3C//DTD SVG 1.1//EN" "http://www.w3.org/Graphics/SVG/1.1/DTD/svg11.dtd"><svg t="1497940702773" class="icon" style="" viewBox="0 0 1024 1024" version="1.1" xmlns="http://www.w3.org/2000/svg" p-id="18955" xmlns:xlink="http://www.w3.org/1999/xlink" width="64" height="64"><defs><style type="text/css"></style></defs><path d="M751.616 527.36c-119.296 0-215.04 95.744-215.04 215.04s95.744 215.04 215.04 215.04c119.296 0 215.04-95.744 215.04-215.04S871.424 527.36 751.616 527.36zM871.424 680.96l-116.224 170.496c-6.656 6.656-13.824 13.824-20.48 13.824-6.656 0-16.896-3.584-20.48-10.24l-68.096-68.096c-6.656-6.656-6.656-20.48 0-27.136l16.896-16.896c6.656-6.656 20.48-6.656 27.136 0l37.376 37.376 88.576-133.12c6.656-10.24 20.48-10.24 27.136-6.656l20.48 13.824c3.584 3.584 6.656 6.656 10.24 13.824C874.496 670.72 874.496 677.376 871.424 680.96z" p-id="18956"></path><path d="M622.592 512.512c-6.144-2.048-12.8-4.096-18.944-6.144 59.904-39.424 99.84-107.52 99.84-184.832 0-122.368-98.816-221.184-221.184-221.184S261.12 199.168 261.12 321.536c0 77.312 39.424 145.408 99.84 184.832-175.616 52.224-303.616 214.528-303.616 407.04 116.736 0 297.984 0 480.768 0-34.816-45.568-55.808-102.4-55.808-164.352C482.304 647.168 539.136 558.08 622.592 512.512z" p-id="18957"></path></svg>