<?xml version="1.0" standalone="no"?><!DOCTYPE svg PUBLIC "-//W3C//DTD SVG 1.1//EN" "http://www.w3.org/Graphics/SVG/1.1/DTD/svg11.dtd"><svg t="1497940748313" class="icon" style="" viewBox="0 0 1024 1024" version="1.1" xmlns="http://www.w3.org/2000/svg" p-id="20863" xmlns:xlink="http://www.w3.org/1999/xlink" width="64" height="64"><defs><style type="text/css"></style></defs><path d="M298.150494 287.602254 298.150494 287.602254 298.150494 287.602254 298.150494 287.602254zM298.150494 287.602254" p-id="20864"></path><path d="M249.426793 324.870042c29.974685 0 54.278207-29.852912 54.278207-66.682725l0-74.9142c0-36.829813-24.303522-66.682725-54.278207-66.682725-29.974685 0-54.273091 29.858028-54.273091 66.682725l0 74.9142C195.153702 295.01713 219.452107 324.870042 249.426793 324.870042L249.426793 324.870042zM249.426793 324.870042" p-id="20865"></path><path d="M955.012789 253.284657c-2.438539-61.036122-58.888202-57.005318-58.888202-57.005318l-1.991354 0-28.0171 0-2.372024 0 0 105.962334c0 0-0.735757 46.493917-45.846164 46.591131-2.832512 0.005117-5.672186 0.010233-8.499581 0.013303-14.620999-0.023536-40.772612-0.053212-69.851904 0.005117-6.742565-0.008186-11.216459-0.01842-12.501732-0.01842-45.918819-1.490957-43.786249-45.38363-43.786249-45.38363L683.258479 196.280362l-2.727111 0L343.474772 196.280362l-2.732228 0 0 107.169835c0 0 2.137687 43.892673-43.785226 45.38363-1.281179 0-5.759167 0.010233-12.502755 0.01842-29.079292-0.062422-55.231929-0.033769-69.850881-0.005117-2.829442-0.004093-5.66707-0.00921-8.496511-0.013303-45.110407-0.097214-45.850258-46.591131-45.850258-46.591131L160.256914 196.280362l-2.371 0-28.018124 0-1.990331 0c0 0-56.449663-4.030803-58.885132 57.005318-0.360204 2.472308-0.442068 3.938706-0.442068 3.938706s0.092098 564.060703 0.092098 589.054957c0 60.572564 61.380976 61.132312 61.380976 61.132312l763.958452 0c0 0 61.375859-0.559748 61.375859-61.132312 0-24.995277 0.092098-589.054957 0.092098-589.054957S955.367877 255.757988 955.012789 253.284657L955.012789 253.284657zM513.207501 783.237541c0 46.298466-88.624457 56.818053-171.816181 56.818053-83.069951 0-172.829254-10.520611-172.829254-56.818053l0-12.730952c0-33.976836 61.255109-68.396763 113.473401-87.281879 3.77293-1.382487 21.800515-11.197016 11.722996-37.642319-25.866111-26.41051-45.407166-69.209268-45.407166-111.330598 0-64.520479 42.661635-98.326423 92.547813-98.326423 49.857525 0 92.767823 33.805944 92.767823 98.326423 0 41.951461-19.653619 84.578304-45.363164 111.054305l0.1361 0c-9.863648 29.989011 5.924943 37.106106 8.422833 37.919634 54.784744 18.135032 116.344798 52.277644 116.344798 87.281879L513.207501 783.237541 513.207501 783.237541zM817.557184 761.986541l-193.773262 0c-22.983457 0-41.615816-18.627243-41.615816-41.6107s18.632359-41.615816 41.615816-41.615816l193.773262 0c22.983457 0 41.614793 18.632359 41.614793 41.615816S840.540641 761.986541 817.557184 761.986541L817.557184 761.986541zM817.557184 597.219917l-193.773262 0c-22.983457 0-41.615816-18.632359-41.615816-41.615816s18.632359-41.6107 41.615816-41.6107l193.773262 0c22.983457 0 41.614793 18.631336 41.614793 41.6107C859.171977 578.587558 840.540641 597.219917 817.557184 597.219917L817.557184 597.219917zM817.557184 597.219917" p-id="20866"></path><path d="M774.836197 324.870042c29.974685 0 54.273091-29.852912 54.273091-66.682725l0-74.9142c0-36.829813-26.338878-66.682725-56.313563-66.682725-29.978778 0-52.237735 29.858028-52.237735 66.682725l0 74.9142C720.55799 295.01713 744.861512 324.870042 774.836197 324.870042L774.836197 324.870042zM774.836197 324.870042" p-id="20867"></path></svg>