<?xml version="1.0" standalone="no"?><!DOCTYPE svg PUBLIC "-//W3C//DTD SVG 1.1//EN" "http://www.w3.org/Graphics/SVG/1.1/DTD/svg11.dtd"><svg t="1497942913426" class="icon" style="" viewBox="0 0 1024 1024" version="1.1" xmlns="http://www.w3.org/2000/svg" p-id="8840" xmlns:xlink="http://www.w3.org/1999/xlink" width="64" height="64"><defs><style type="text/css"></style></defs><path d="M874.989 811.297c0 36.453-29.826 66.281-66.281 66.281h-596.524c-36.453 0-66.281-29.826-66.281-66.281v-161.725l231.982-231.982 165.038 165.038c19.884 18.558 41.757 26.511 67.606 0l264.459-399.959v194.175h66.281v-294.633h-278.455v66.281h177.159l-263.248 390.393-167.027-167.027c-20.547-19.884-43.745-17.897-63.629 0l-200.165 200.165v-357.251c0-36.453 29.826-66.281 66.281-66.281h326.353v-66.281h-326.353c-72.909 0-132.561 59.652-132.561 132.561v596.524c0 72.909 59.652 132.561 132.561 132.561h596.524c72.909 0 132.561-59.652 132.561-132.561v-321.834h-66.281v321.834z" p-id="8841" fill="#1296db"></path></svg>