<?xml version="1.0" standalone="no"?><!DOCTYPE svg PUBLIC "-//W3C//DTD SVG 1.1//EN" "http://www.w3.org/Graphics/SVG/1.1/DTD/svg11.dtd"><svg t="1497940792457" class="icon" style="" viewBox="0 0 1024 1024" version="1.1" xmlns="http://www.w3.org/2000/svg" p-id="23857" xmlns:xlink="http://www.w3.org/1999/xlink" width="64" height="64"><defs><style type="text/css"></style></defs><path d="M597.224522 414.820704c-27.083845-7.732102-55.642275-11.95938-85.226057-11.95938-29.584806 0-58.146305 4.227278-85.22708 11.95938V150.041248H199.067336v131.615597l110.729917 196.44716c-65.750493 56.782238-107.432825 140.696416-107.432824 234.380099 0 171.001629 138.631384 309.624826 309.634036 309.624826 171.003676 0 309.648362-138.623197 309.648362-309.624826 0-101.216239-48.592718-191.080943-123.706463-247.567445l126.977973-180.257434V150.041248H597.224522V414.820704zM710.853465 712.484104c0 109.648282-89.231277 198.857047-198.855 198.857047-109.652376 0-198.85807-89.203648-198.85807-198.857047 0-109.654422 89.205695-198.863187 198.85807-198.863187 109.623723 0 198.855 89.208764 198.855 198.863187zM111.256408 1.890047v89.84526h801.486161v-89.84526H111.256408z m394.034285 525.154601l-39.748283 121.470539H337.993432c-3.03308 0-5.753027 1.982144-6.695492 4.868891s0.090051 6.073322 2.545986 7.841595l103.227036 75.202773-39.772842 122.135688a7.045463 7.045463 0 0 0 2.545986 7.863084 7.048533 7.048533 0 0 0 8.253987 0l103.876836-75.40027 103.670128 75.40027c1.24741 0.890276 2.706645 1.343601 4.139273 1.343601s2.88777-0.452301 4.116761-1.343601a7.037277 7.037277 0 0 0 2.568499-7.863084l-39.772842-122.135688 103.421464-75.202773a7.03216 7.03216 0 0 0 2.568498-7.841595 7.062859 7.062859 0 0 0-6.685259-4.868891H558.229392l-39.569204-121.44905a6.999414 6.999414 0 0 0-6.659676-4.868891 7.096628 7.096628 0 0 0-6.709819 4.847402z" fill="" p-id="23858"></path></svg>