<?xml version="1.0" encoding="UTF-8" standalone="no"?>
<svg
   xmlns:dc="http://purl.org/dc/elements/1.1/"
   xmlns:cc="http://creativecommons.org/ns#"
   xmlns:rdf="http://www.w3.org/1999/02/22-rdf-syntax-ns#"
   xmlns:svg="http://www.w3.org/2000/svg"
   xmlns="http://www.w3.org/2000/svg"
   viewBox="0 0 913.33331 944"
   height="944"
   width="913.33331"
   xml:space="preserve"
   id="svg2"
   version="1.1"><metadata
     id="metadata8"><rdf:RDF><cc:Work
         rdf:about=""><dc:format>image/svg+xml</dc:format><dc:type
           rdf:resource="http://purl.org/dc/dcmitype/StillImage" /></cc:Work></rdf:RDF></metadata><defs
     id="defs6" /><g
     transform="matrix(1.3333333,0,0,-1.3333333,0,944)"
     id="g10"><g
       transform="scale(0.1)"
       id="g12"><path
         id="path14"
         style="fill:#000000;fill-opacity:1;fill-rule:nonzero;stroke:none"
         d="m 2336.13,5920.52 h 201.25 V 5809 c 0,-22.07 6.68,-41.91 16.17,-60.35 9.54,-52.54 53.05,-92.38 107.74,-92.38 37.34,0 68.75,19.14 88.98,47.14 32.89,24.61 55.51,61.72 55.51,105.59 v 111.52 h 156.17 c 74.18,0 134.34,60.39 134.34,134.34 0,73.91 -60.16,134.33 -134.34,134.33 h -156.17 v 167.54 c 0,74.18 -60.16,134.34 -134.3,134.34 -74.21,0 -134.1,-60.16 -134.1,-134.34 v -167.54 h -201.25 c -73.94,0 -134.06,-60.42 -134.06,-134.33 0,-73.99 60.08,-134.34 134.06,-134.34 z" /><path
         id="path16"
         style="fill:#000000;fill-opacity:1;fill-rule:nonzero;stroke:none"
         d="m 5403.32,1081.77 -8.98,26.96 c -376.33,914.06 -1146.25,1563.12 -2057.54,1767.81 550.35,392.3 923.75,1233.63 923.75,2233.9 0,636.25 -156.88,1240 -441.76,1700.08 l -33.83,54.57 -60.23,22.19 c -694.46,255.04 -1490.43,255.04 -2184.34,0 l -60.31,-22.19 -33.79,-54.57 c -285,-459.84 -442.03,-1063.71 -442.03,-1700.08 0,-1026.83 392.93,-1887.57 967.58,-2265.46 C 1123.32,2611.23 405,1981.23 45.5898,1108.73 l -8.8281,-26.96 C 2.07031,938.84 -57.8086,577.711 135.781,312.941 212.148,208.41 359.922,79.9414 629.801,61.1094 878.441,44.0391 1578.32,26.8086 2720.2,10.0195 h 9.84 c 1131.56,16.8321 1831.44,34.0196 2080.7,51.0899 269.38,18.832 417.03,147.3006 493.4,251.8316 193.71,264.77 133.59,625.829 99.18,768.829 z M 1610.66,6635.33 c 651.33,222.07 1391.68,222.07 2043.79,0 233.36,-404.1 365.24,-918.17 389.69,-1466.1 -1258.01,247.86 -2349.37,93.32 -2823.44,-2.07 24.18,548.91 156.21,1063.64 389.96,1468.17 z M 1237.54,4984.74 c 380.23,81.6 1512.15,271.53 2789.88,2.46 -78.32,-1158.51 -684.96,-2094.22 -1395,-2094.22 -709.53,0 -1315.7,934.38 -1394.88,2091.76 z M 5165,472.551 c -47.23,-64.449 -124.1,-99.449 -234.14,-107.223 -259.57,-17.777 -1001.6,-35.816 -2206.13,-53.75 l 3,-199.379 -12.57,199.379 C 1510.66,329.469 768.629,347.551 509.691,365.328 398.98,373.102 322.148,408.141 275.039,472.551 188.949,590.25 195.59,794.43 231.41,951.691 663.238,1984.35 1628.01,2653.34 2691.41,2658.49 l 28.79,-1.8 c 8.71,0 18.32,0.63 26.48,0.75 1065.86,-4.1 2030.51,-673.09 2461.91,-1705.588 C 5244.45,794.43 5250.94,590.25 5165,472.551 Z" /><path
         id="path18"
         style="fill:#000000;fill-opacity:1;fill-rule:nonzero;stroke:none"
         d="m 6813.48,1146.89 c -296.53,929.02 -949.03,1279.84 -1380.82,1512.03 -68.87,37.07 -132.62,71.29 -189.38,105.2 -78.08,45.74 -158.08,83.51 -228.9,116.87 -39.77,18.79 -89.22,42.07 -124.15,61.49 979.57,1455.23 853.99,2749.76 848.68,2798.28 -38.36,744.49 -757.5,1011.44 -1132.35,1048.63 l -123.44,12.27 -24.45,-247.04 123.63,-12.3 c 35.4,-3.48 871.45,-94.65 909.26,-821.09 0.47,-5.82 24.73,-275.28 -38.32,-697.07 -284.18,113.36 -711.17,140.27 -769.33,143.16 l -12.62,-248.01 c 211.44,-10.78 568.55,-58.55 736.83,-143.08 -101.83,-485.28 -316.17,-1108.79 -767.14,-1758.48 l -13.6,-25.31 c -67.42,-171.8 117.85,-258.95 281.29,-335.94 64.49,-30.55 137.7,-64.84 208.24,-106.21 58.95,-35 125.86,-71.13 198.13,-109.92 420.43,-226.02 996.01,-535.51 1257.89,-1350.67 49.18,-313.009 1.95,-412.688 -20.63,-441.009 -10.66,-13.48 -27.89,-27.543 -72.26,-30.55 -165.12,-11.051 -385.27,-16.993 -385.98,-16.993 l 6.8,-248.277 c 0,0 226.21,6.168 395.94,17.5 105.97,7.219 190.11,48.707 249.68,123.469 97.78,122.539 120.36,324.14 67,653.05 z" /></g></g></svg>