<?xml version="1.0" encoding="UTF-8" standalone="no"?>
<svg
   xmlns:dc="http://purl.org/dc/elements/1.1/"
   xmlns:cc="http://creativecommons.org/ns#"
   xmlns:rdf="http://www.w3.org/1999/02/22-rdf-syntax-ns#"
   xmlns:svg="http://www.w3.org/2000/svg"
   xmlns="http://www.w3.org/2000/svg"
   viewBox="0 0 1093.3333 1094.6667"
   height="1094.6667"
   width="1093.3333"
   xml:space="preserve"
   id="svg2"
   version="1.1"><metadata
     id="metadata8"><rdf:RDF><cc:Work
         rdf:about=""><dc:format>image/svg+xml</dc:format><dc:type
           rdf:resource="http://purl.org/dc/dcmitype/StillImage" /></cc:Work></rdf:RDF></metadata><defs
     id="defs6" /><g
     transform="matrix(1.3333333,0,0,-1.3333333,0,1094.6667)"
     id="g10"><g
       transform="scale(0.1)"
       id="g12"><path
         id="path14"
         style="fill:#20b49a;fill-opacity:1;fill-rule:nonzero;stroke:none"
         d="M 7868.24,5697.96 C 7329.77,6974.45 6182.27,7891.99 4818.63,8136.48 3454.96,8380.97 2060.16,7919.25 1111.76,6909.37 1047.7,6843 1024.3,6747.34 1050.47,6658.9 c 26.21,-88.44 97.97,-155.94 187.81,-176.68 89.88,-20.78 183.95,8.44 246.25,76.41 684.85,727.69 1611.92,1128.48 2610.55,1128.48 1975.58,0 3583.2,-1607.66 3583.2,-3583.21 0.86,-775.62 -251.33,-1530.35 -718.24,-2149.69 -127.66,216.65 -279.42,418.09 -452.46,600.51 -62.11,69.46 -157.07,99.65 -247.89,78.83 -90.82,-20.82 -163.17,-89.37 -188.87,-178.94 -25.66,-89.58 -0.66,-186.02 65.35,-251.8 185.67,-195.7 342.27,-417.11 464.92,-657.38 C 5954.45,911.75 5069.61,520.699 4095.08,520.699 c -974.49,0 -1859.34,391.051 -2505.98,1024.491 477.97,935.47 1451.33,1534.96 2505.98,1534.96 527.38,0.94 1044.26,-147.22 1491.05,-427.34 77.46,-48.6 174.96,-52.15 255.78,-9.34 80.82,42.81 132.66,125.47 135.98,216.88 3.32,91.36 -42.34,177.61 -119.84,226.17 -150.12,94.06 -307.5,175.94 -470.67,244.92 -80,33.63 -160.66,64.06 -241.95,91.25 76.33,55.63 148.2,117.15 214.96,183.99 698.79,698.78 698.79,1831.71 0,2530.5 -698.79,698.79 -1831.76,698.79 -2530.55,0 -698.79,-698.79 -698.79,-1831.72 0,-2530.5 66.84,-66.84 138.83,-128.36 215.24,-183.99 -762.46,-254.3 -1407.15,-775.9 -1815.04,-1468.48 -466.88,619.38 -719.02,1374.11 -718.161,2149.69 -0.039,212.78 18.711,425.16 56.012,634.65 23.199,138.4 -69.301,269.69 -207.422,294.38 C 222.301,5057.57 90.0781,4966.4 63.9805,4828.55 21.4102,4589.33 0,4346.87 0,4103.9 1.25,2156.17 1373.87,478.711 3282.81,91.9492 5191.76,-294.77 7109.02,716.211 7868.24,2509.88 c 429.26,1019.37 429.26,2168.79 0,3188.16 z M 2817.62,4871.75 c 0,704.38 573.08,1277.46 1277.46,1277.46 704.41,0 1277.5,-573.08 1277.5,-1277.46 0,-704.41 -573.09,-1277.5 -1277.5,-1277.5 -704.38,0 -1277.46,573.09 -1277.46,1277.5 z" /><path
         id="path16"
         style="fill:#20b49a;fill-opacity:1;fill-rule:nonzero;stroke:none"
         d="m 430.078,5279.02 c 63.121,-25 133.633,-23.87 195.942,3.12 62.3,27 111.359,77.66 136.281,140.82 22.23,56.02 46.179,112 71.289,167.35 60.898,133.36 129.961,262.89 206.72,387.81 74.07,120.43 36.45,278.05 -83.939,352.11 -120.43,74.02 -278.09,36.41 -352.109,-83.98 C 516.48,6103.28 437.539,5955.11 367.93,5802.5 c -28.629,-62.78 -56.02,-127.19 -81.52,-191.33 -52.031,-131.41 12.262,-280.08 143.668,-332.15 z" /></g></g></svg>