<?xml version="1.0" encoding="UTF-8" standalone="no"?>
<svg
   xmlns:dc="http://purl.org/dc/elements/1.1/"
   xmlns:cc="http://creativecommons.org/ns#"
   xmlns:rdf="http://www.w3.org/1999/02/22-rdf-syntax-ns#"
   xmlns:svg="http://www.w3.org/2000/svg"
   xmlns="http://www.w3.org/2000/svg"
   viewBox="0 0 1093.3333 865.33331"
   height="865.33331"
   width="1093.3333"
   xml:space="preserve"
   id="svg2"
   version="1.1"><metadata
     id="metadata8"><rdf:RDF><cc:Work
         rdf:about=""><dc:format>image/svg+xml</dc:format><dc:type
           rdf:resource="http://purl.org/dc/dcmitype/StillImage" /></cc:Work></rdf:RDF></metadata><defs
     id="defs6" /><g
     transform="matrix(1.3333333,0,0,-1.3333333,0,865.33333)"
     id="g10"><g
       transform="scale(0.1)"
       id="g12"><path
         id="path14"
         style="fill:#20b49a;fill-opacity:1;fill-rule:nonzero;stroke:none"
         d="m 4608.01,6230.78 c 153.59,0 255.97,-102.38 255.97,-255.97 V 1366.8 c 0,-153.59 -102.38,-256.02 -255.97,-256.02 H 511.988 c -153.59,0 -255.968,102.43 -255.968,256.02 v 4608.01 c 0,153.59 102.378,255.97 255.968,255.97 H 4608.01 m 0,256.02 H 511.988 C 230.391,6486.8 0,6256.41 0,5974.81 V 1366.8 C 0,1085.2 230.391,854.809 511.988,854.809 H 4608.01 c 281.6,0 511.99,230.391 511.99,511.991 v 4608.01 c 0,281.6 -230.39,511.99 -511.99,511.99 z" /><path
         id="path16"
         style="fill:#20b49a;fill-opacity:1;fill-rule:nonzero;stroke:none"
         d="M 7551.99,10 H 4403.2 c -358.4,0 -640,281.602 -640,640 0,76.801 51.21,128.012 128.01,128.012 76.8,0 128.01,-51.211 128.01,-128.012 0,-204.801 179.18,-383.98 383.98,-383.98 h 3148.79 c 204.81,0 384.03,179.179 384.03,383.98 v 4096.02 c 0,204.76 -179.22,383.98 -384.03,383.98 H 5299.22 c -76.84,0 -128.01,51.21 -128.01,128.01 0,76.8 51.17,128.01 128.01,128.01 h 2252.77 c 358.4,0 640,-281.6 640,-640 V 650 c 0,-358.398 -281.6,-640 -640,-640 z" /><path
         id="path18"
         style="fill:#20b49a;fill-opacity:1;fill-rule:nonzero;stroke:none"
         d="M 1740.78,4310.78 H 1484.8 c -204.8,0 -384.02,179.22 -384.02,384.03 v 255.97 c 0,204.81 179.22,384.03 384.02,384.03 h 255.98 c 204.81,0 384.02,-179.22 384.02,-384.03 v -255.97 c 0,-204.81 -179.21,-384.03 -384.02,-384.03 z m -255.98,768.01 c -76.79,0 -128,-51.21 -128,-128.01 v -255.97 c 0,-76.8 51.21,-128.01 128,-128.01 h 255.98 c 76.84,0 128.01,51.21 128.01,128.01 v 255.97 c 0,76.8 -51.17,128.01 -128.01,128.01 z" /><path
         id="path20"
         style="fill:#20b49a;fill-opacity:1;fill-rule:nonzero;stroke:none"
         d="m 1996.8,3133.21 c -307.19,0 -614.42,76.79 -896.02,230.39 -76.8,25.58 -102.382,102.42 -76.8,153.59 25.63,51.21 102.43,76.8 179.22,51.21 358.4,-179.22 691.21,-230.39 1023.99,-179.22 153.59,25.63 281.6,76.84 409.61,128.01 179.22,76.8 358.4,128.01 614.41,153.59 383.99,25.63 793.59,-153.59 972.77,-332.77 51.22,-51.21 51.22,-128.01 0,-179.22 -51.17,-51.21 -127.96,-51.21 -179.18,0 -102.42,128.01 -435.19,256.02 -768,256.02 -230.39,-25.63 -383.99,-76.8 -563.21,-128.01 -128,-51.21 -281.6,-102.38 -460.78,-128.01 -76.79,-25.58 -153.59,-25.58 -256.01,-25.58 z" /><path
         id="path22"
         style="fill:#20b49a;fill-opacity:1;fill-rule:nonzero;stroke:none"
         d="m 1996.8,1853.21 c -307.19,0 -614.42,76.79 -896.02,230.39 -51.17,25.58 -76.8,102.42 -51.17,179.22 25.59,51.17 102.38,76.79 179.18,51.17 358.4,-179.18 691.21,-230.39 1024.02,-179.18 153.6,25.58 281.6,76.79 409.57,128.01 179.22,76.79 358.4,127.96 614.42,153.59 383.98,25.59 793.59,-153.59 972.81,-332.81 51.17,-51.21 51.17,-128.01 0,-179.18 -51.21,-51.21 -128.01,-51.21 -179.22,0 -102.38,127.97 -435.19,281.6 -768.01,255.97 -230.39,-25.58 -383.98,-76.79 -563.16,-128 -128.01,-51.18 -281.6,-102.39 -460.82,-127.97 -102.38,-51.21 -179.18,-51.21 -281.6,-51.21 z" /></g></g></svg>