<?xml version="1.0" standalone="no"?><!DOCTYPE svg PUBLIC "-//W3C//DTD SVG 1.1//EN" "http://www.w3.org/Graphics/SVG/1.1/DTD/svg11.dtd"><svg class="icon" width="200px" height="185.68px" viewBox="0 0 1103 1024" version="1.1" xmlns="http://www.w3.org/2000/svg"><path fill="#333333" d="M1024 1024 78.769231 1024C35.249231 1024 0 988.750769 0 945.230769L0 157.538462C0 114.018462 35.249231 78.769231 78.769231 78.769231L236.307692 78.769231 236.307692 157.538462 78.769231 157.538462 78.769231 275.692308 1024 275.692308 1024 157.538462 866.461538 157.538462 866.461538 78.769231 1024 78.769231C1067.52 78.769231 1102.769231 114.018462 1102.769231 157.538462L1102.769231 945.230769C1102.769231 988.750769 1067.52 1024 1024 1024ZM1024 354.461538 78.769231 354.461538 78.769231 945.230769 1024 945.230769 1024 354.461538ZM586.476308 450.363077C614.636308 450.363077 622.907077 449.811692 642.756923 447.606154 639.448615 480.177231 638.345846 505.540923 638.345846 538.624L638.345846 817.782154C638.345846 847.044923 639.448615 866.894769 642.756923 889.501538L559.458462 889.501538C562.766769 867.997538 563.869538 846.493538 563.869538 817.782154L563.869538 513.811692 537.403077 513.811692C516.962462 513.811692 500.972308 514.914462 480.571077 517.12L480.571077 447.054769C497.664 449.811692 509.794462 450.363077 535.748923 450.363077L586.476308 450.363077ZM787.692308 236.307692C765.952 236.307692 748.307692 218.663385 748.307692 196.923077L748.307692 39.384615C748.307692 17.644308 765.952 0 787.692308 0 809.432615 0 827.076923 17.644308 827.076923 39.384615L827.076923 196.923077C827.076923 218.663385 809.432615 236.307692 787.692308 236.307692ZM393.846154 78.769231 708.923077 78.769231 708.923077 157.538462 393.846154 157.538462 393.846154 78.769231ZM315.076923 236.307692C293.336615 236.307692 275.692308 218.663385 275.692308 196.923077L275.692308 39.384615C275.692308 17.644308 293.336615 0 315.076923 0 336.817231 0 354.461538 17.644308 354.461538 39.384615L354.461538 196.923077C354.461538 218.663385 336.817231 236.307692 315.076923 236.307692Z" /></svg>